<svg width="52" height="52" viewBox="0 0 52 52" fill="none" xmlns="http://www.w3.org/2000/svg">
<mask id="path-1-outside-1_3315_26" maskUnits="userSpaceOnUse" x="1" y="1" width="50" height="50" fill="black">
<rect fill="white" x="1" y="1" width="50" height="50"/>
<path d="M29.585 3.62151C29.585 2.72878 30.4559 2 31.5406 2C32.6272 2 33.4972 2.72404 33.4972 3.62151V10.7141C33.4972 11.6078 32.6272 12.3366 31.5406 12.3366C30.4559 12.3366 29.585 11.6116 29.585 10.7141V3.62151ZM34.0841 34.9685L36.1991 36.9938L40.3906 32.6912C40.7825 32.2885 41.0263 31.9681 41.5091 32.4685L43.0756 34.0872C43.5875 34.6008 43.5612 34.9003 43.0766 35.3817L37.0906 41.3276C36.0706 42.3398 36.2469 42.4032 35.2109 41.3617L31.4478 37.5804C31.2341 37.3435 31.2566 37.1066 31.49 36.8677L33.3069 34.9657C33.5816 34.6776 33.8 34.6956 34.0841 34.9685ZM37.4206 24.5657C40.8875 24.5657 44.0356 25.991 46.3109 28.2939C48.59 30.5921 50 33.7716 50 37.2838C50 40.7893 48.59 43.9707 46.3156 46.2708C44.0356 48.5747 40.8884 50 37.4206 50C33.9491 50 30.8056 48.5747 28.5294 46.2755C26.2494 43.9755 24.8412 40.7922 24.8412 37.2838C24.8412 33.7716 26.2513 30.5921 28.5266 28.2911L28.5913 28.2314C30.8638 25.9664 33.9847 24.5657 37.4206 24.5657ZM44.8025 29.8169C42.9191 27.911 40.3062 26.7283 37.4206 26.7283C34.5612 26.7283 31.97 27.8902 30.0903 29.7638L30.0387 29.8197C28.1497 31.7293 26.9806 34.3696 26.9806 37.2838C26.9806 40.1979 28.1488 42.8373 30.0378 44.7469C31.9222 46.6546 34.5359 47.8364 37.4206 47.8364C40.3044 47.8364 42.9191 46.6546 44.8053 44.7479C46.6906 42.842 47.8597 40.1989 47.8597 37.2838C47.8597 34.3696 46.6906 31.7293 44.8025 29.8169ZM7.32594 24.9608C7.21531 24.9608 7.11594 24.468 7.11594 23.8644C7.11594 23.2597 7.20406 22.7717 7.32594 22.7717H12.6641C12.7756 22.7717 12.875 23.2645 12.875 23.8644C12.875 24.4699 12.7869 24.9608 12.6641 24.9608H7.32594ZM15.8366 24.9608C15.725 24.9608 15.6266 24.468 15.6266 23.8644C15.6266 23.2597 15.7137 22.7717 15.8366 22.7717H21.1747C21.2853 22.7717 21.3847 23.2645 21.3847 23.8644C21.3847 24.4699 21.2966 24.9608 21.1747 24.9608H15.8366ZM24.3463 24.9608C24.2356 24.9608 24.1362 24.468 24.1362 23.8644C24.1362 23.2597 24.2234 22.7717 24.3463 22.7717H29.6844C29.795 22.7717 29.8944 23.2597 29.8944 23.8606C29.3602 24.1972 28.8456 24.5645 28.3531 24.9608H24.3463ZM7.33812 31.2384C7.2275 31.2384 7.12813 30.7456 7.12813 30.1419C7.12813 29.5363 7.21531 29.0435 7.33812 29.0435H12.6762C12.7869 29.0435 12.8863 29.5363 12.8863 30.1419C12.8863 30.7456 12.7991 31.2384 12.6762 31.2384H7.33812ZM15.8478 31.2384C15.7372 31.2384 15.6378 30.7456 15.6378 30.1419C15.6378 29.5363 15.725 29.0435 15.8478 29.0435H21.1859C21.2966 29.0435 21.3959 29.5363 21.3959 30.1419C21.3959 30.7456 21.3087 31.2384 21.1859 31.2384H15.8478ZM7.34938 37.5198C7.23875 37.5198 7.13937 37.027 7.13937 36.4214C7.13937 35.8177 7.2275 35.3249 7.34938 35.3249H12.6875C12.7991 35.3249 12.8984 35.8177 12.8984 36.4214C12.8984 37.027 12.8103 37.5198 12.6875 37.5198H7.34938ZM15.86 37.5198C15.7484 37.5198 15.6491 37.027 15.6491 36.4214C15.6491 35.8177 15.7372 35.3249 15.86 35.3249H21.1981C21.3087 35.3249 21.4081 35.8177 21.4081 36.4214C21.4081 37.027 21.32 37.5198 21.1981 37.5198H15.86ZM12.0153 3.62151C12.0153 2.72878 12.8863 2 13.9709 2C15.0566 2 15.9266 2.72404 15.9266 3.62151V10.7141C15.9266 11.6078 15.0528 12.3366 13.9709 12.3366C12.8863 12.3366 12.0153 11.6116 12.0153 10.7141V3.62151ZM4.15438 17.5081H41.4097V9.34088C41.4097 9.06225 41.2991 8.8168 41.1209 8.63673C40.9428 8.45667 40.6888 8.34484 40.4234 8.34484H36.8516C36.2544 8.34484 35.7669 7.85204 35.7669 7.24836C35.7669 6.64372 36.2544 6.15092 36.8516 6.15092H40.4234C41.2991 6.15092 42.0828 6.5082 42.6566 7.08725C43.2313 7.66913 43.5828 8.46141 43.5828 9.34561V22.3111C42.8712 22.0628 42.1381 21.8628 41.3862 21.715V19.6888H41.4097H22.782H4.15438V40.8376C4.15438 41.1172 4.26594 41.3617 4.44313 41.5418C4.62125 41.7218 4.87531 41.8337 5.13969 41.8337H22.8453C23.0469 42.5937 23.3009 43.3348 23.6066 44.0475H5.16031C4.28844 44.0475 3.50094 43.6921 2.92719 43.1102C2.35344 42.535 2 41.7427 2 40.8575V9.34941C2 8.46899 2.35344 7.67198 2.92719 7.09199C3.50094 6.51105 4.28469 6.15471 5.16031 6.15471H8.97406C9.57125 6.15471 10.0588 6.64752 10.0588 7.2512C10.0588 7.85678 9.57125 8.34958 8.97406 8.34958H5.16031C4.88281 8.34958 4.64188 8.46141 4.46375 8.64147C4.28469 8.82154 4.17313 9.07647 4.17313 9.34561V17.511H4.15438V17.5081ZM19.0559 8.34484C18.4578 8.34484 17.9703 7.85204 17.9703 7.24836C17.9703 6.64372 18.4578 6.15092 19.0559 6.15092H26.3253C26.9244 6.15092 27.4119 6.64372 27.4119 7.24836C27.4119 7.85204 26.9244 8.34484 26.3253 8.34484H19.0559Z"/>
</mask>
<path d="M29.585 3.62151C29.585 2.72878 30.4559 2 31.5406 2C32.6272 2 33.4972 2.72404 33.4972 3.62151V10.7141C33.4972 11.6078 32.6272 12.3366 31.5406 12.3366C30.4559 12.3366 29.585 11.6116 29.585 10.7141V3.62151ZM34.0841 34.9685L36.1991 36.9938L40.3906 32.6912C40.7825 32.2885 41.0263 31.9681 41.5091 32.4685L43.0756 34.0872C43.5875 34.6008 43.5612 34.9003 43.0766 35.3817L37.0906 41.3276C36.0706 42.3398 36.2469 42.4032 35.2109 41.3617L31.4478 37.5804C31.2341 37.3435 31.2566 37.1066 31.49 36.8677L33.3069 34.9657C33.5816 34.6776 33.8 34.6956 34.0841 34.9685ZM37.4206 24.5657C40.8875 24.5657 44.0356 25.991 46.3109 28.2939C48.59 30.5921 50 33.7716 50 37.2838C50 40.7893 48.59 43.9707 46.3156 46.2708C44.0356 48.5747 40.8884 50 37.4206 50C33.9491 50 30.8056 48.5747 28.5294 46.2755C26.2494 43.9755 24.8412 40.7922 24.8412 37.2838C24.8412 33.7716 26.2513 30.5921 28.5266 28.2911L28.5913 28.2314C30.8638 25.9664 33.9847 24.5657 37.4206 24.5657ZM44.8025 29.8169C42.9191 27.911 40.3062 26.7283 37.4206 26.7283C34.5612 26.7283 31.97 27.8902 30.0903 29.7638L30.0387 29.8197C28.1497 31.7293 26.9806 34.3696 26.9806 37.2838C26.9806 40.1979 28.1488 42.8373 30.0378 44.7469C31.9222 46.6546 34.5359 47.8364 37.4206 47.8364C40.3044 47.8364 42.9191 46.6546 44.8053 44.7479C46.6906 42.842 47.8597 40.1989 47.8597 37.2838C47.8597 34.3696 46.6906 31.7293 44.8025 29.8169ZM7.32594 24.9608C7.21531 24.9608 7.11594 24.468 7.11594 23.8644C7.11594 23.2597 7.20406 22.7717 7.32594 22.7717H12.6641C12.7756 22.7717 12.875 23.2645 12.875 23.8644C12.875 24.4699 12.7869 24.9608 12.6641 24.9608H7.32594ZM15.8366 24.9608C15.725 24.9608 15.6266 24.468 15.6266 23.8644C15.6266 23.2597 15.7137 22.7717 15.8366 22.7717H21.1747C21.2853 22.7717 21.3847 23.2645 21.3847 23.8644C21.3847 24.4699 21.2966 24.9608 21.1747 24.9608H15.8366ZM24.3463 24.9608C24.2356 24.9608 24.1362 24.468 24.1362 23.8644C24.1362 23.2597 24.2234 22.7717 24.3463 22.7717H29.6844C29.795 22.7717 29.8944 23.2597 29.8944 23.8606C29.3602 24.1972 28.8456 24.5645 28.3531 24.9608H24.3463ZM7.33812 31.2384C7.2275 31.2384 7.12813 30.7456 7.12813 30.1419C7.12813 29.5363 7.21531 29.0435 7.33812 29.0435H12.6762C12.7869 29.0435 12.8863 29.5363 12.8863 30.1419C12.8863 30.7456 12.7991 31.2384 12.6762 31.2384H7.33812ZM15.8478 31.2384C15.7372 31.2384 15.6378 30.7456 15.6378 30.1419C15.6378 29.5363 15.725 29.0435 15.8478 29.0435H21.1859C21.2966 29.0435 21.3959 29.5363 21.3959 30.1419C21.3959 30.7456 21.3087 31.2384 21.1859 31.2384H15.8478ZM7.34938 37.5198C7.23875 37.5198 7.13937 37.027 7.13937 36.4214C7.13937 35.8177 7.2275 35.3249 7.34938 35.3249H12.6875C12.7991 35.3249 12.8984 35.8177 12.8984 36.4214C12.8984 37.027 12.8103 37.5198 12.6875 37.5198H7.34938ZM15.86 37.5198C15.7484 37.5198 15.6491 37.027 15.6491 36.4214C15.6491 35.8177 15.7372 35.3249 15.86 35.3249H21.1981C21.3087 35.3249 21.4081 35.8177 21.4081 36.4214C21.4081 37.027 21.32 37.5198 21.1981 37.5198H15.86ZM12.0153 3.62151C12.0153 2.72878 12.8863 2 13.9709 2C15.0566 2 15.9266 2.72404 15.9266 3.62151V10.7141C15.9266 11.6078 15.0528 12.3366 13.9709 12.3366C12.8863 12.3366 12.0153 11.6116 12.0153 10.7141V3.62151ZM4.15438 17.5081H41.4097V9.34088C41.4097 9.06225 41.2991 8.8168 41.1209 8.63673C40.9428 8.45667 40.6888 8.34484 40.4234 8.34484H36.8516C36.2544 8.34484 35.7669 7.85204 35.7669 7.24836C35.7669 6.64372 36.2544 6.15092 36.8516 6.15092H40.4234C41.2991 6.15092 42.0828 6.5082 42.6566 7.08725C43.2313 7.66913 43.5828 8.46141 43.5828 9.34561V22.3111C42.8712 22.0628 42.1381 21.8628 41.3862 21.715V19.6888H41.4097H22.782H4.15438V40.8376C4.15438 41.1172 4.26594 41.3617 4.44313 41.5418C4.62125 41.7218 4.87531 41.8337 5.13969 41.8337H22.8453C23.0469 42.5937 23.3009 43.3348 23.6066 44.0475H5.16031C4.28844 44.0475 3.50094 43.6921 2.92719 43.1102C2.35344 42.535 2 41.7427 2 40.8575V9.34941C2 8.46899 2.35344 7.67198 2.92719 7.09199C3.50094 6.51105 4.28469 6.15471 5.16031 6.15471H8.97406C9.57125 6.15471 10.0588 6.64752 10.0588 7.2512C10.0588 7.85678 9.57125 8.34958 8.97406 8.34958H5.16031C4.88281 8.34958 4.64188 8.46141 4.46375 8.64147C4.28469 8.82154 4.17313 9.07647 4.17313 9.34561V17.511H4.15438V17.5081ZM19.0559 8.34484C18.4578 8.34484 17.9703 7.85204 17.9703 7.24836C17.9703 6.64372 18.4578 6.15092 19.0559 6.15092H26.3253C26.9244 6.15092 27.4119 6.64372 27.4119 7.24836C27.4119 7.85204 26.9244 8.34484 26.3253 8.34484H19.0559Z" fill="white"/>
<path d="M29.585 3.62151C29.585 2.72878 30.4559 2 31.5406 2C32.6272 2 33.4972 2.72404 33.4972 3.62151V10.7141C33.4972 11.6078 32.6272 12.3366 31.5406 12.3366C30.4559 12.3366 29.585 11.6116 29.585 10.7141V3.62151ZM34.0841 34.9685L36.1991 36.9938L40.3906 32.6912C40.7825 32.2885 41.0263 31.9681 41.5091 32.4685L43.0756 34.0872C43.5875 34.6008 43.5612 34.9003 43.0766 35.3817L37.0906 41.3276C36.0706 42.3398 36.2469 42.4032 35.2109 41.3617L31.4478 37.5804C31.2341 37.3435 31.2566 37.1066 31.49 36.8677L33.3069 34.9657C33.5816 34.6776 33.8 34.6956 34.0841 34.9685ZM37.4206 24.5657C40.8875 24.5657 44.0356 25.991 46.3109 28.2939C48.59 30.5921 50 33.7716 50 37.2838C50 40.7893 48.59 43.9707 46.3156 46.2708C44.0356 48.5747 40.8884 50 37.4206 50C33.9491 50 30.8056 48.5747 28.5294 46.2755C26.2494 43.9755 24.8412 40.7922 24.8412 37.2838C24.8412 33.7716 26.2513 30.5921 28.5266 28.2911L28.5913 28.2314C30.8638 25.9664 33.9847 24.5657 37.4206 24.5657ZM44.8025 29.8169C42.9191 27.911 40.3062 26.7283 37.4206 26.7283C34.5612 26.7283 31.97 27.8902 30.0903 29.7638L30.0387 29.8197C28.1497 31.7293 26.9806 34.3696 26.9806 37.2838C26.9806 40.1979 28.1488 42.8373 30.0378 44.7469C31.9222 46.6546 34.5359 47.8364 37.4206 47.8364C40.3044 47.8364 42.9191 46.6546 44.8053 44.7479C46.6906 42.842 47.8597 40.1989 47.8597 37.2838C47.8597 34.3696 46.6906 31.7293 44.8025 29.8169ZM7.32594 24.9608C7.21531 24.9608 7.11594 24.468 7.11594 23.8644C7.11594 23.2597 7.20406 22.7717 7.32594 22.7717H12.6641C12.7756 22.7717 12.875 23.2645 12.875 23.8644C12.875 24.4699 12.7869 24.9608 12.6641 24.9608H7.32594ZM15.8366 24.9608C15.725 24.9608 15.6266 24.468 15.6266 23.8644C15.6266 23.2597 15.7137 22.7717 15.8366 22.7717H21.1747C21.2853 22.7717 21.3847 23.2645 21.3847 23.8644C21.3847 24.4699 21.2966 24.9608 21.1747 24.9608H15.8366ZM24.3463 24.9608C24.2356 24.9608 24.1362 24.468 24.1362 23.8644C24.1362 23.2597 24.2234 22.7717 24.3463 22.7717H29.6844C29.795 22.7717 29.8944 23.2597 29.8944 23.8606C29.3602 24.1972 28.8456 24.5645 28.3531 24.9608H24.3463ZM7.33812 31.2384C7.2275 31.2384 7.12813 30.7456 7.12813 30.1419C7.12813 29.5363 7.21531 29.0435 7.33812 29.0435H12.6762C12.7869 29.0435 12.8863 29.5363 12.8863 30.1419C12.8863 30.7456 12.7991 31.2384 12.6762 31.2384H7.33812ZM15.8478 31.2384C15.7372 31.2384 15.6378 30.7456 15.6378 30.1419C15.6378 29.5363 15.725 29.0435 15.8478 29.0435H21.1859C21.2966 29.0435 21.3959 29.5363 21.3959 30.1419C21.3959 30.7456 21.3087 31.2384 21.1859 31.2384H15.8478ZM7.34938 37.5198C7.23875 37.5198 7.13937 37.027 7.13937 36.4214C7.13937 35.8177 7.2275 35.3249 7.34938 35.3249H12.6875C12.7991 35.3249 12.8984 35.8177 12.8984 36.4214C12.8984 37.027 12.8103 37.5198 12.6875 37.5198H7.34938ZM15.86 37.5198C15.7484 37.5198 15.6491 37.027 15.6491 36.4214C15.6491 35.8177 15.7372 35.3249 15.86 35.3249H21.1981C21.3087 35.3249 21.4081 35.8177 21.4081 36.4214C21.4081 37.027 21.32 37.5198 21.1981 37.5198H15.86ZM12.0153 3.62151C12.0153 2.72878 12.8863 2 13.9709 2C15.0566 2 15.9266 2.72404 15.9266 3.62151V10.7141C15.9266 11.6078 15.0528 12.3366 13.9709 12.3366C12.8863 12.3366 12.0153 11.6116 12.0153 10.7141V3.62151ZM4.15438 17.5081H41.4097V9.34088C41.4097 9.06225 41.2991 8.8168 41.1209 8.63673C40.9428 8.45667 40.6888 8.34484 40.4234 8.34484H36.8516C36.2544 8.34484 35.7669 7.85204 35.7669 7.24836C35.7669 6.64372 36.2544 6.15092 36.8516 6.15092H40.4234C41.2991 6.15092 42.0828 6.5082 42.6566 7.08725C43.2313 7.66913 43.5828 8.46141 43.5828 9.34561V22.3111C42.8712 22.0628 42.1381 21.8628 41.3862 21.715V19.6888H41.4097H22.782H4.15438V40.8376C4.15438 41.1172 4.26594 41.3617 4.44313 41.5418C4.62125 41.7218 4.87531 41.8337 5.13969 41.8337H22.8453C23.0469 42.5937 23.3009 43.3348 23.6066 44.0475H5.16031C4.28844 44.0475 3.50094 43.6921 2.92719 43.1102C2.35344 42.535 2 41.7427 2 40.8575V9.34941C2 8.46899 2.35344 7.67198 2.92719 7.09199C3.50094 6.51105 4.28469 6.15471 5.16031 6.15471H8.97406C9.57125 6.15471 10.0588 6.64752 10.0588 7.2512C10.0588 7.85678 9.57125 8.34958 8.97406 8.34958H5.16031C4.88281 8.34958 4.64188 8.46141 4.46375 8.64147C4.28469 8.82154 4.17313 9.07647 4.17313 9.34561V17.511H4.15438V17.5081ZM19.0559 8.34484C18.4578 8.34484 17.9703 7.85204 17.9703 7.24836C17.9703 6.64372 18.4578 6.15092 19.0559 6.15092H26.3253C26.9244 6.15092 27.4119 6.64372 27.4119 7.24836C27.4119 7.85204 26.9244 8.34484 26.3253 8.34484H19.0559Z" stroke="white" mask="url(#path-1-outside-1_3315_26)"/>
</svg>
