<svg width="49" height="49" viewBox="0 0 49 49" fill="none" xmlns="http://www.w3.org/2000/svg">
<path d="M37.4255 5.82959H11.5747C8.40203 5.82959 5.83008 8.40154 5.83008 11.5742V37.425C5.83008 40.5977 8.40203 43.1696 11.5747 43.1696H37.4255C40.5982 43.1696 43.1701 40.5977 43.1701 37.425V11.5742C43.1701 8.40154 40.5982 5.82959 37.4255 5.82959Z" stroke="white" stroke-width="3.44677" stroke-linecap="round" stroke-linejoin="round"/>
<path d="M24.5 5.82959V43.1696" stroke="white" stroke-width="3.44677" stroke-linecap="round" stroke-linejoin="round"/>
<path d="M5.83008 24.4995H43.1701" stroke="white" stroke-width="3.44677" stroke-linecap="round" stroke-linejoin="round"/>
<path d="M11.5742 15.1646H18.755" stroke="white" stroke-width="3.44677" stroke-linecap="round" stroke-linejoin="round"/>
<path d="M30.9629 15.1646H36.7075" stroke="white" stroke-width="3.44677" stroke-linecap="round" stroke-linejoin="round"/>
<path d="M30.9629 30.9624H36.7075" stroke="white" stroke-width="3.44677" stroke-linecap="round" stroke-linejoin="round"/>
<path d="M30.9629 36.707H36.7075" stroke="white" stroke-width="3.44677" stroke-linecap="round" stroke-linejoin="round"/>
<path d="M15.1641 11.5742V18.755" stroke="white" stroke-width="3.44677" stroke-linecap="round" stroke-linejoin="round"/>
<path d="M12.1191 30.7896L18.2084 36.8787" stroke="white" stroke-width="3.44677" stroke-linecap="round" stroke-linejoin="round"/>
<path d="M18.2084 30.7896L12.1191 36.8787" stroke="white" stroke-width="3.44677" stroke-linecap="round" stroke-linejoin="round"/>
</svg>
