<svg width="21" height="20" viewBox="0 0 21 20" fill="none" xmlns="http://www.w3.org/2000/svg">
<path d="M7.99984 4.16667H6.33317C5.4127 4.16667 4.6665 4.91286 4.6665 5.83333V15.8333C4.6665 16.7538 5.4127 17.5 6.33317 17.5H14.6665C15.587 17.5 16.3332 16.7538 16.3332 15.8333V5.83333C16.3332 4.91286 15.587 4.16667 14.6665 4.16667H12.9998M7.99984 4.16667C7.99984 5.08714 8.74603 5.83333 9.6665 5.83333H11.3332C12.2536 5.83333 12.9998 5.08714 12.9998 4.16667M7.99984 4.16667C7.99984 3.24619 8.74603 2.5 9.6665 2.5H11.3332C12.2536 2.5 12.9998 3.24619 12.9998 4.16667M10.4998 10H12.9998M10.4998 13.3333H12.9998M7.99984 10H8.00817M7.99984 13.3333H8.00817" stroke="white" stroke-width="1.66667" stroke-linecap="round"/>
</svg>
