<svg width="48" height="49" viewBox="0 0 48 49" fill="none" xmlns="http://www.w3.org/2000/svg">
<path d="M38.7817 19.7403C39.097 20.8417 40.2455 21.4791 41.3469 21.1638C42.4484 20.8485 43.0857 19.7 42.7704 18.5985L38.7817 19.7403ZM36.2418 11.3007L37.7358 9.86147L37.7342 9.85982L36.2418 11.3007ZM26.9626 6.19279L27.3818 4.1611L27.3779 4.1603L26.9626 6.19279ZM16.5045 7.25973L15.6874 5.35298L15.6853 5.35386L16.5045 7.25973ZM8.38026 14.1308L6.63682 13.0066L6.63679 13.0066L8.38026 14.1308ZM10.6314 37.7074L12.1315 36.2746L12.1306 36.2736L10.6314 37.7074ZM33.4866 40.0307L34.6677 41.7361L34.6682 41.7357L33.4866 40.0307ZM42.0816 32.4182C42.5059 31.3539 41.9871 30.1472 40.9229 29.7229C39.8586 29.2986 38.6519 29.8174 38.2276 30.8816L42.0816 32.4182ZM38.7686 18.6472C38.4804 19.7561 39.1458 20.8886 40.2546 21.1768C41.3635 21.465 42.496 20.7996 42.7842 19.6908L38.7686 18.6472ZM44.6779 12.4036C44.9661 11.2947 44.3007 10.1622 43.1919 9.87404C42.083 9.58588 40.9505 10.2512 40.6623 11.3601L44.6779 12.4036ZM40.2228 21.1693C41.3271 21.4745 42.4697 20.8267 42.7749 19.7223C43.0801 18.618 42.4322 17.4754 41.3279 17.1702L40.2228 21.1693ZM34.2625 15.2178C33.1582 14.9126 32.0156 15.5604 31.7104 16.6647C31.4053 17.769 32.0531 18.9117 33.1574 19.2168L34.2625 15.2178ZM23.4055 19.1689C23.4055 18.0232 22.4768 17.0945 21.3311 17.0945C20.1854 17.0945 19.2566 18.0232 19.2566 19.1689H23.4055ZM21.3311 27.171H19.2566C19.2566 28.3167 20.1854 29.2454 21.3311 29.2454V27.171ZM29.3327 29.2454C30.4784 29.2454 31.4071 28.3167 31.4071 27.171C31.4071 26.0253 30.4784 25.0965 29.3327 25.0965V29.2454ZM40.7761 19.1694L42.7704 18.5985C41.8315 15.3184 40.1029 12.3185 37.7358 9.86147L36.2418 11.3007L34.7478 12.74C36.6444 14.7086 38.0294 17.1122 38.7817 19.7403L40.7761 19.1694ZM36.2418 11.3007L37.7342 9.85982C34.9357 6.96141 31.3276 4.97521 27.3818 4.1611L26.9626 6.19279L26.5434 8.22448C29.6711 8.86979 32.5311 10.4442 34.7494 12.7417L36.2418 11.3007ZM26.9626 6.19279L27.3779 4.1603C23.4506 3.35781 19.3718 3.77393 15.6874 5.35298L16.5045 7.25973L17.3217 9.16647C20.2293 7.92036 23.4481 7.59199 26.5473 8.22527L26.9626 6.19279ZM16.5045 7.25973L15.6853 5.35386C11.9755 6.94851 8.82521 9.61285 6.63682 13.0066L8.38026 14.1308L10.1237 15.255C11.8651 12.5545 14.3718 10.4345 17.3238 9.16559L16.5045 7.25973ZM8.38026 14.1308L6.63679 13.0066C1.32362 21.2466 2.35565 32.0556 9.13216 39.1412L10.6314 37.7074L12.1306 36.2736C6.68066 30.5751 5.85063 21.882 10.1237 15.255L8.38026 14.1308ZM10.6314 37.7074L9.13125 39.1403C15.8458 46.1701 26.6761 47.271 34.6677 41.7361L33.4866 40.0307L32.3055 38.3253C25.992 42.6979 17.4361 41.8282 12.1315 36.2746L10.6314 37.7074ZM33.4866 40.0307L34.6682 41.7357C38.0012 39.4259 40.5797 36.185 42.0816 32.4182L40.1546 31.6499L38.2276 30.8816C37.0278 33.8911 34.9677 36.4802 32.305 38.3256L33.4866 40.0307ZM40.7764 19.169L42.7842 19.6908L44.6779 12.4036L42.6701 11.8818L40.6623 11.3601L38.7686 18.6472L40.7764 19.169ZM40.7754 19.1698L41.3279 17.1702L34.2625 15.2178L33.71 17.2173L33.1574 19.2168L40.2228 21.1693L40.7754 19.1698ZM21.3311 19.1689H19.2566V27.171H21.3311H23.4055V19.1689H21.3311ZM21.3311 27.171V29.2454H29.3327V27.171V25.0965H21.3311V27.171Z" fill="white"/>
</svg>
