<svg width="14" height="17" viewBox="0 0 14 17" fill="none" xmlns="http://www.w3.org/2000/svg">
    <path
        d="M4.49996 2.66667H2.83329C1.91282 2.66667 1.16663 3.41286 1.16663 4.33333V14.3333C1.16663 15.2538 1.91282 16 2.83329 16H11.1666C12.0871 16 12.8333 15.2538 12.8333 14.3333V4.33333C12.8333 3.41286 12.0871 2.66667 11.1666 2.66667H9.49996M4.49996 2.66667C4.49996 3.58714 5.24615 4.33333 6.16663 4.33333H7.83329C8.75377 4.33333 9.49996 3.58714 9.49996 2.66667M4.49996 2.66667C4.49996 1.74619 5.24615 1 6.16663 1H7.83329C8.75377 1 9.49996 1.74619 9.49996 2.66667M6.99996 8.5H9.49996M6.99996 11.8333H9.49996M4.49996 8.5H4.50829M4.49996 11.8333H4.50829"
        stroke="white" stroke-linecap="round" />
</svg>
    