<svg width="20" height="20" viewBox="0 0 20 20" fill="none" xmlns="http://www.w3.org/2000/svg">
<path d="M12.5 4.1665V5.83317M12.5 9.1665V10.8332M12.5 14.1665V15.8332M4.16667 4.1665C3.24619 4.1665 2.5 4.9127 2.5 5.83317V8.33317C3.42047 8.33317 4.16667 9.07936 4.16667 9.99984C4.16667 10.9203 3.42047 11.6665 2.5 11.6665V14.1665C2.5 15.087 3.24619 15.8332 4.16667 15.8332H15.8333C16.7538 15.8332 17.5 15.087 17.5 14.1665V11.6665C16.5795 11.6665 15.8333 10.9203 15.8333 9.99984C15.8333 9.07936 16.5795 8.33317 17.5 8.33317V5.83317C17.5 4.9127 16.7538 4.1665 15.8333 4.1665H4.16667Z" stroke="white" stroke-width="1.66667" stroke-linecap="round" stroke-linejoin="round"/>
</svg>
