<svg width="61" height="61" viewBox="0 0 61 61" fill="none" xmlns="http://www.w3.org/2000/svg">
<g clip-path="url(#clip0_2459_2122)">
<path d="M30.5 11.3335C41.5216 11.3335 50.5 18.6678 50.5 27.6606C50.4999 31.2612 49.0943 34.5038 46.208 37.7085C42.0094 42.5725 32.637 48.4733 30.5 49.3784C28.3632 50.2833 28.6818 48.8133 28.7568 48.3042C28.7943 48.1031 28.8881 47.531 29.0381 46.5884C29.113 46.0606 29.1875 45.2692 28.9814 44.7603C28.7565 44.1947 27.8758 43.9111 27.2197 43.7603C17.6042 42.4971 10.5003 35.7295 10.5 27.6606C10.5 18.6678 19.4597 11.3335 30.5 11.3335ZM17.123 23.0034C16.9169 23.0034 16.7481 23.173 16.748 23.3804V32.1655C16.748 32.3729 16.9169 32.5435 17.123 32.5435H22.7461C22.9523 32.5435 23.1211 32.3729 23.1211 32.1655V30.7329C23.121 30.5256 22.9522 30.356 22.7461 30.356H18.9229V23.3804C18.9228 23.1731 18.7539 23.0036 18.5479 23.0034H17.123ZM24.6953 23.0034C24.4884 23.0035 24.3204 23.1722 24.3203 23.3804V32.1655C24.3203 32.3737 24.4884 32.5433 24.6953 32.5435H26.1201C26.327 32.5433 26.4941 32.3737 26.4941 32.1655V23.3804C26.4941 23.1723 26.3269 23.0036 26.1201 23.0034H24.6953ZM28.2568 23.0034C28.0508 23.0035 27.8633 23.1731 27.8633 23.3804V32.1655C27.8633 32.3728 28.0507 32.5433 28.2568 32.5435H29.6631C29.8879 32.5433 30.0566 32.3728 30.0566 32.1655V26.9438L34.0488 32.3735C34.0738 32.4111 34.1052 32.4422 34.1426 32.4673H34.1611C34.1611 32.4799 34.1682 32.4868 34.1807 32.4868C34.1823 32.4884 34.1886 32.4947 34.1992 32.5054H34.2363V32.5239H34.2734C34.2983 32.5364 34.3299 32.5434 34.3672 32.5435H35.7734C35.9984 32.5435 36.167 32.3729 36.167 32.1655V23.3804C36.1669 23.173 35.9983 23.0034 35.7734 23.0034H34.3672C34.1612 23.0037 33.9737 23.1732 33.9736 23.3804V28.5835L29.9814 23.1733C29.9814 23.1608 29.9754 23.1478 29.9629 23.1353C29.9504 23.1227 29.9373 23.1107 29.9248 23.0981C29.9123 23.0856 29.9062 23.0786 29.9062 23.0786H29.8877C29.8876 23.0662 29.8815 23.0601 29.8691 23.0601C29.8691 23.0601 29.8691 23.0538 29.8691 23.0415H29.8311C29.8186 23.029 29.8125 23.022 29.8125 23.022H29.7939C29.7815 23.0219 29.7754 23.0159 29.7754 23.0034H28.2568ZM37.9102 23.0034C37.704 23.0035 37.5352 23.1731 37.5352 23.3804V32.1655C37.5352 32.3729 37.704 32.5434 37.9102 32.5435H43.5332C43.7394 32.5435 43.9082 32.3729 43.9082 32.1655V30.7329C43.9081 30.5256 43.7393 30.356 43.5332 30.356H39.71V28.8667H43.5332C43.7393 28.8667 43.9081 28.6971 43.9082 28.4897V27.0571C43.9082 26.8497 43.7394 26.6802 43.5332 26.6802H39.71V25.1899H43.5332C43.7394 25.1899 43.9082 25.0204 43.9082 24.813V23.3804C43.9081 23.173 43.7394 23.0034 43.5332 23.0034H37.9102Z" fill="#FF5733"/>
</g>
<defs>
<clipPath id="clip0_2459_2122">
<rect width="40" height="40" fill="white" transform="translate(10.5 10.5)"/>
</clipPath>
</defs>
</svg>
