<svg width="16" height="17" viewBox="0 0 16 17" fill="none" xmlns="http://www.w3.org/2000/svg">
<path d="M11.7711 11.6046C11.1467 12.229 9.84088 13.5348 8.94237 14.4333C8.42167 14.954 7.57829 14.9543 7.05759 14.4336C6.17473 13.5507 4.89423 12.2702 4.2286 11.6046C2.1458 9.52177 2.1458 6.14489 4.2286 4.0621C6.3114 1.9793 9.68828 1.9793 11.7711 4.0621C13.8539 6.14489 13.8539 9.52177 11.7711 11.6046Z" stroke="white" stroke-width="1.33333" stroke-linecap="round" stroke-linejoin="round"/>
<path d="M9.99984 7.83333C9.99984 8.9379 9.10441 9.83333 7.99984 9.83333C6.89527 9.83333 5.99984 8.9379 5.99984 7.83333C5.99984 6.72876 6.89527 5.83333 7.99984 5.83333C9.10441 5.83333 9.99984 6.72876 9.99984 7.83333Z" stroke="white" stroke-width="1.33333" stroke-linecap="round" stroke-linejoin="round"/>
</svg>
