<svg width="49" height="49" viewBox="0 0 49 49" fill="none" xmlns="http://www.w3.org/2000/svg">
<path d="M13.219 8.07856C13.7705 7.51234 13.7053 6.65272 13.0734 6.15856C12.4414 5.66439 11.4821 5.72281 10.9306 6.28903L8.31478 8.97459C6.83101 10.4979 5.99224 12.4403 5.94519 14.4617L5.83042 19.3926C5.81293 20.1439 6.47854 20.7657 7.3171 20.7814C8.15565 20.7971 8.84962 20.2007 8.86711 19.4493L8.98188 14.5185C9.01407 13.1354 9.58797 11.8064 10.6032 10.7641L13.219 8.07856Z" fill="white"/>
<path fill-rule="evenodd" clip-rule="evenodd" d="M12.8306 17.6725C13.1119 13.6433 16.8409 10.5044 21.3465 10.5044H22.4752V9.14365C22.4752 8.14161 23.3818 7.32929 24.5001 7.32929C25.6184 7.32929 26.525 8.14161 26.525 9.14365V10.5044H27.6537C32.1592 10.5044 35.8883 13.6433 36.1695 17.6725L36.617 24.0835C36.7877 26.5278 37.7035 28.8833 39.2648 30.8935C40.6755 32.7098 39.4197 35.2183 36.9676 35.4819L30.0686 36.2237V38.1735C30.0686 40.9291 27.5755 43.163 24.5001 43.163C21.4247 43.163 18.9316 40.9291 18.9316 38.1735V36.2237L12.0325 35.4819C9.58048 35.2183 8.32459 32.7098 9.73531 30.8935C11.2966 28.8833 12.2125 26.5278 12.3831 24.0835L12.8306 17.6725ZM21.3465 13.226C18.4448 13.226 16.0432 15.2475 15.862 17.8424L15.4145 24.2534C15.2092 27.1947 14.1071 30.0292 12.2283 32.4481C12.1264 32.5794 12.2171 32.7607 12.3944 32.7798L19.9628 33.5935C22.9768 33.9176 26.0233 33.9176 29.0374 33.5935L36.6058 32.7798C36.783 32.7607 36.8738 32.5794 36.7718 32.4481C34.893 30.0292 33.7909 27.1947 33.5856 24.2534L33.1381 17.8424C32.957 15.2475 30.5554 13.226 27.6537 13.226H21.3465ZM24.5001 40.4414C23.1022 40.4414 21.969 39.426 21.969 38.1735V36.8127H27.0312V38.1735C27.0312 39.426 25.898 40.4414 24.5001 40.4414Z" fill="white"/>
<path d="M35.9268 6.15856C35.2949 6.65272 35.2297 7.51234 35.7812 8.07856L38.397 10.7641C39.4122 11.8064 39.9861 13.1354 40.0183 14.5185L40.133 19.4493C40.1505 20.2007 40.8445 20.7971 41.6831 20.7814C42.5216 20.7657 43.1872 20.1439 43.1697 19.3926L43.055 14.4617C43.0079 12.4403 42.1691 10.4979 40.6854 8.97459L38.0696 6.28903C37.5181 5.72281 36.5587 5.66439 35.9268 6.15856Z" fill="white"/>
<path d="M13.219 8.07856C13.7705 7.51234 13.7053 6.65272 13.0734 6.15856C12.4414 5.66439 11.4821 5.72281 10.9306 6.28903L8.31478 8.97459C6.83101 10.4979 5.99224 12.4403 5.94519 14.4617L5.83042 19.3926C5.81293 20.1439 6.47854 20.7657 7.3171 20.7814C8.15565 20.7971 8.84962 20.2007 8.86711 19.4493L8.98188 14.5185C9.01407 13.1354 9.58797 11.8064 10.6032 10.7641L13.219 8.07856Z" stroke="white" stroke-width="1.06686" stroke-linecap="round"/>
<path fill-rule="evenodd" clip-rule="evenodd" d="M12.8306 17.6725C13.1119 13.6433 16.8409 10.5044 21.3465 10.5044H22.4752V9.14365C22.4752 8.14161 23.3818 7.32929 24.5001 7.32929C25.6184 7.32929 26.525 8.14161 26.525 9.14365V10.5044H27.6537C32.1592 10.5044 35.8883 13.6433 36.1695 17.6725L36.617 24.0835C36.7877 26.5278 37.7035 28.8833 39.2648 30.8935C40.6755 32.7098 39.4197 35.2183 36.9676 35.4819L30.0686 36.2237V38.1735C30.0686 40.9291 27.5755 43.163 24.5001 43.163C21.4247 43.163 18.9316 40.9291 18.9316 38.1735V36.2237L12.0325 35.4819C9.58048 35.2183 8.32459 32.7098 9.73531 30.8935C11.2966 28.8833 12.2125 26.5278 12.3831 24.0835L12.8306 17.6725ZM21.3465 13.226C18.4448 13.226 16.0432 15.2475 15.862 17.8424L15.4145 24.2534C15.2092 27.1947 14.1071 30.0292 12.2283 32.4481C12.1264 32.5794 12.2171 32.7607 12.3944 32.7798L19.9628 33.5935C22.9768 33.9176 26.0233 33.9176 29.0374 33.5935L36.6058 32.7798C36.783 32.7607 36.8738 32.5794 36.7718 32.4481C34.893 30.0292 33.7909 27.1947 33.5856 24.2534L33.1381 17.8424C32.957 15.2475 30.5554 13.226 27.6537 13.226H21.3465ZM24.5001 40.4414C23.1022 40.4414 21.969 39.426 21.969 38.1735V36.8127H27.0312V38.1735C27.0312 39.426 25.898 40.4414 24.5001 40.4414Z" stroke="white" stroke-width="1.06686" stroke-linecap="round"/>
<path d="M35.9268 6.15856C35.2949 6.65272 35.2297 7.51234 35.7812 8.07856L38.397 10.7641C39.4122 11.8064 39.9861 13.1354 40.0183 14.5185L40.133 19.4493C40.1505 20.2007 40.8445 20.7971 41.6831 20.7814C42.5216 20.7657 43.1872 20.1439 43.1697 19.3926L43.055 14.4617C43.0079 12.4403 42.1691 10.4979 40.6854 8.97459L38.0696 6.28903C37.5181 5.72281 36.5587 5.66439 35.9268 6.15856Z" stroke="white" stroke-width="1.06686" stroke-linecap="round"/>
</svg>
