<svg width="16" height="17" viewBox="0 0 16 17" fill="none" xmlns="http://www.w3.org/2000/svg">
<path d="M2 3.83333C2 3.09695 2.59695 2.5 3.33333 2.5H5.51949C5.80645 2.5 6.06121 2.68362 6.15195 2.95585L7.15049 5.95147C7.25541 6.26622 7.11292 6.61021 6.81618 6.75858L5.31134 7.511C6.04617 9.14081 7.35919 10.4538 8.989 11.1887L9.74142 9.68382C9.88979 9.38708 10.2338 9.24459 10.5485 9.34951L13.5442 10.3481C13.8164 10.4388 14 10.6936 14 10.9805V13.1667C14 13.903 13.403 14.5 12.6667 14.5H12C6.47715 14.5 2 10.0228 2 4.5V3.83333Z" stroke="white" stroke-width="1.33333" stroke-linecap="round" stroke-linejoin="round"/>
</svg>
