<svg width="20" height="20" viewBox="0 0 20 20" fill="none" xmlns="http://www.w3.org/2000/svg">
    <path
        d="M13.3333 2.5H17.5M17.5 2.5V6.66667M17.5 2.5L12.5 7.5M4.16667 2.5C3.24619 2.5 2.5 3.24619 2.5 4.16667V5C2.5 11.9036 8.09644 17.5 15 17.5H15.8333C16.7538 17.5 17.5 16.7538 17.5 15.8333V13.1006C17.5 12.7419 17.2705 12.4235 16.9302 12.3101L13.1857 11.0619C12.7922 10.9307 12.3622 11.1088 12.1768 11.4798L11.2363 13.3608C9.19898 12.4423 7.55771 10.801 6.63917 8.76375L8.52022 7.82322C8.89115 7.63776 9.06926 7.20777 8.93811 6.81434L7.68994 3.06981C7.57651 2.72953 7.25806 2.5 6.89937 2.5H4.16667Z"
        stroke="#009688" stroke-width="2" stroke-linecap="round" stroke-linejoin="round" />
</svg>
    