<svg width="14" height="14" viewBox="0 0 14 14" fill="none" xmlns="http://www.w3.org/2000/svg">
    <path
        d="M8.16683 5.83333L7.00016 6.41667M7.00016 6.41667L5.8335 5.83333M7.00016 6.41667V7.875M11.6668 4.08333L10.5002 4.66667M11.6668 4.08333L10.5002 3.5M11.6668 4.08333V5.54167M8.16683 2.33333L7.00016 1.75L5.8335 2.33333M2.3335 4.08333L3.50016 3.5M2.3335 4.08333L3.50016 4.66667M2.3335 4.08333V5.54167M7.00016 12.25L5.8335 11.6667M7.00016 12.25L8.16683 11.6667M7.00016 12.25V10.7917M3.50016 10.5L2.3335 9.91667V8.45833M10.5002 10.5L11.6668 9.91667V8.45833"
        stroke="#32ADE6" stroke-width="1.16667" stroke-linecap="round" stroke-linejoin="round" />
</svg>
    