<svg width="22" height="22" viewBox="0 0 22 22" fill="none" xmlns="http://www.w3.org/2000/svg">
<path d="M13.75 4.58301V6.41634M13.75 10.083V11.9163M13.75 15.583V17.4163M4.58333 4.58301C3.57081 4.58301 2.75 5.40382 2.75 6.41634V9.16634C3.76252 9.16634 4.58333 9.98715 4.58333 10.9997C4.58333 12.0122 3.76252 12.833 2.75 12.833V15.583C2.75 16.5955 3.57081 17.4163 4.58333 17.4163H17.4167C18.4292 17.4163 19.25 16.5955 19.25 15.583V12.833C18.2375 12.833 17.4167 12.0122 17.4167 10.9997C17.4167 9.98715 18.2375 9.16634 19.25 9.16634V6.41634C19.25 5.40382 18.4292 4.58301 17.4167 4.58301H4.58333Z" stroke="#32ADE6" stroke-width="1.83333" stroke-linecap="round" stroke-linejoin="round"/>
</svg>
