<svg width="48" height="48" viewBox="0 0 48 48" fill="none" xmlns="http://www.w3.org/2000/svg">
<path d="M26 8C26 6.89543 25.1046 6 24 6C22.8954 6 22 6.89543 22 8H26ZM22 10C22 11.1046 22.8954 12 24 12C25.1046 12 26 11.1046 26 10H22ZM36 30C34.8954 30 34 30.8954 34 32C34 33.1046 34.8954 34 36 34V30ZM40 34C41.1046 34 42 33.1046 42 32C42 30.8954 41.1046 30 40 30V34ZM24 32V30C22.8954 30 22 30.8954 22 32H24ZM28 34C29.1046 34 30 33.1046 30 32C30 30.8954 29.1046 30 28 30V34ZM22 40C22 41.1046 22.8954 42 24 42C25.1046 42 26 41.1046 26 40H22ZM26 18C26 16.8954 25.1046 16 24 16C22.8954 16 22 16.8954 22 18H26ZM24 24H22C22 25.1046 22.8954 26 24 26V24ZM32 38C30.8954 38 30 38.8954 30 40C30 41.1046 30.8954 42 32 42V38ZM40 42C41.1046 42 42 41.1046 42 40C42 38.8954 41.1046 38 40 38V42ZM8 22C6.89543 22 6 22.8954 6 24C6 25.1046 6.89543 26 8 26V22ZM16 26C17.1046 26 18 25.1046 18 24C18 22.8954 17.1046 22 16 22V26ZM24.02 26C25.1246 26 26.02 25.1046 26.02 24C26.02 22.8954 25.1246 22 24.02 22V26ZM32.02 26C33.1246 26 34.02 25.1046 34.02 24C34.02 22.8954 33.1246 22 32.02 22V26ZM40 22C38.8954 22 38 22.8954 38 24C38 25.1046 38.8954 26 40 26V22ZM40.02 26C41.1246 26 42.02 25.1046 42.02 24C42.02 22.8954 41.1246 22 40.02 22V26ZM10 8V10H14V8V6H10V8ZM16 10H14V14H16H18V10H16ZM14 16V14H10V16V18H14V16ZM8 14H10V10H8H6V14H8ZM10 16V14H8H6C6 16.2091 7.79086 18 10 18V16ZM16 14H14V16V18C16.2091 18 18 16.2091 18 14H16ZM14 8V10H16H18C18 7.79086 16.2091 6 14 6V8ZM10 8V6C7.79086 6 6 7.79086 6 10H8H10V8ZM34 8V10H38V8V6H34V8ZM40 10H38V14H40H42V10H40ZM38 16V14H34V16V18H38V16ZM32 14H34V10H32H30V14H32ZM34 16V14H32H30C30 16.2091 31.7909 18 34 18V16ZM40 14H38V16V18C40.2091 18 42 16.2091 42 14H40ZM38 8V10H40H42C42 7.79086 40.2091 6 38 6V8ZM34 8V6C31.7909 6 30 7.79086 30 10H32H34V8ZM10 32V34H14V32V30H10V32ZM16 34H14V38H16H18V34H16ZM14 40V38H10V40V42H14V40ZM8 38H10V34H8H6V38H8ZM10 40V38H8H6C6 40.2091 7.79086 42 10 42V40ZM16 38H14V40V42C16.2091 42 18 40.2091 18 38H16ZM14 32V34H16H18C18 31.7909 16.2091 30 14 30V32ZM10 32V30C7.79086 30 6 31.7909 6 34H8H10V32ZM24 8H22V10H24H26V8H24ZM36 32V34H40V32V30H36V32ZM24 32V34H28V32V30H24V32ZM24 32H22V40H24H26V32H24ZM24 18H22V24H24H26V18H24ZM32 40V42H40V40V38H32V40ZM8 24V26H16V24V22H8V24ZM24 24V26H24.02V24V22H24V24ZM40 24V26H40.02V24V22H40V24ZM24 24V26H32.02V24V22H24V24Z" fill="white"/>
</svg>
