<svg width="20" height="20" viewBox="0 0 20 20" fill="none" xmlns="http://www.w3.org/2000/svg">
<path d="M10.0001 5.20866C10.3453 5.20866 10.6251 4.92884 10.6251 4.58366C10.6251 4.23848 10.3453 3.95866 10.0001 3.95866V5.20866ZM16.4584 10.417C16.4584 10.0718 16.1786 9.79199 15.8334 9.79199C15.4882 9.79199 15.2084 10.0718 15.2084 10.417H16.4584ZM15.8334 5.2085C16.1786 5.2085 16.4584 4.92867 16.4584 4.5835C16.4584 4.23832 16.1786 3.9585 15.8334 3.9585V5.2085ZM12.4268 3.9585C12.0816 3.9585 11.8018 4.23832 11.8018 4.5835C11.8018 4.92867 12.0816 5.2085 12.4268 5.2085V3.9585ZM16.4583 4.5835C16.4583 4.23832 16.1785 3.9585 15.8333 3.9585C15.4882 3.9585 15.2083 4.23832 15.2083 4.5835H16.4583ZM15.2083 8.03433C15.2083 8.37951 15.4882 8.65933 15.8333 8.65933C16.1785 8.65933 16.4583 8.37951 16.4583 8.03433H15.2083ZM16.2753 5.02544C16.5194 4.78136 16.5194 4.38563 16.2753 4.14155C16.0312 3.89748 15.6355 3.89748 15.3914 4.14155L16.2753 5.02544ZM9.55806 9.97489C9.31398 10.219 9.31398 10.6147 9.55806 10.8588C9.80214 11.1028 10.1979 11.1028 10.4419 10.8588L9.55806 9.97489ZM10.0001 4.58366V3.95866H7.50008V4.58366V5.20866H10.0001V4.58366ZM7.50008 4.58366V3.95866C5.31395 3.95866 3.54175 5.73087 3.54175 7.91699H4.16675H4.79175C4.79175 6.42122 6.00431 5.20866 7.50008 5.20866V4.58366ZM4.16675 7.91699H3.54175V12.917H4.16675H4.79175V7.91699H4.16675ZM4.16675 12.917H3.54175C3.54175 15.1031 5.31395 16.8753 7.50008 16.8753V16.2503V15.6253C6.00431 15.6253 4.79175 14.4128 4.79175 12.917H4.16675ZM7.50008 16.2503V16.8753H12.5001V16.2503V15.6253H7.50008V16.2503ZM12.5001 16.2503V16.8753C14.6862 16.8753 16.4584 15.1031 16.4584 12.917H15.8334H15.2084C15.2084 14.4128 13.9959 15.6253 12.5001 15.6253V16.2503ZM15.8334 12.917H16.4584V10.417H15.8334H15.2084V12.917H15.8334ZM15.8334 4.5835V3.9585H12.4268V4.5835V5.2085H15.8334V4.5835ZM15.8333 4.5835H15.2083V8.03433H15.8333H16.4583V4.5835H15.8333ZM15.8333 4.5835L15.3914 4.14155L9.55806 9.97489L10 10.4168L10.4419 10.8588L16.2753 5.02544L15.8333 4.5835Z" fill="white"/>
</svg>
