<svg width="18" height="20" viewBox="0 0 18 20" fill="none" xmlns="http://www.w3.org/2000/svg">
<path d="M2.90747 3.41751C2.90747 2.75653 3.45629 2.2207 4.13329 2.2207H13.9398C14.6168 2.2207 15.1656 2.75653 15.1656 3.41751V5.81111C15.1656 6.47209 14.6168 7.00792 13.9398 7.00792H4.13329C3.45629 7.00792 2.90747 6.47209 2.90747 5.81111V3.41751Z" stroke="white" stroke-width="2.07446" stroke-linejoin="round"/>
<path d="M5.35864 7.00781V10.5982" stroke="white" stroke-width="2.07446" stroke-linecap="round" stroke-linejoin="round"/>
<path d="M12.7124 7.00781V10.5982" stroke="white" stroke-width="2.07446" stroke-linecap="round" stroke-linejoin="round"/>
<path d="M2.29346 11.7954C2.29346 11.1345 2.84228 10.5986 3.51927 10.5986H14.5516C15.2286 10.5986 15.7774 11.1345 15.7774 11.7954V13.5906H2.29346V11.7954Z" stroke="white" stroke-width="2.07446" stroke-linejoin="round"/>
<path d="M4.13306 13.5903V17.7791" stroke="white" stroke-width="2.07446" stroke-linecap="round" stroke-linejoin="round"/>
<path d="M13.938 13.5903V17.7791" stroke="white" stroke-width="2.07446" stroke-linecap="round" stroke-linejoin="round"/>
</svg>
