<svg width="22" height="22" viewBox="0 0 22 22" fill="none" xmlns="http://www.w3.org/2000/svg">
<g clip-path="url(#clip0_2459_2321)">
<path d="M11.2488 8.216C11.1773 8.01356 11.0669 7.82946 10.9265 7.6727C10.6281 7.33924 10.1944 7.12939 9.71165 7.12939H8.45004C7.64651 7.12939 6.99512 7.78078 6.99512 8.58431C6.99512 9.26803 7.4712 9.85951 8.13913 10.0056L10.06 10.4258C10.8082 10.5895 11.3416 11.2526 11.3416 12.0186C11.3416 12.9187 10.6118 13.6491 9.71165 13.6491H8.62503C7.91536 13.6491 7.31162 13.1955 7.08786 12.5625" stroke="white" stroke-width="2.28189" stroke-linecap="round" stroke-linejoin="round"/>
<path d="M9.16797 7.12918V5.49927" stroke="white" stroke-width="2.28189" stroke-linecap="round" stroke-linejoin="round"/>
<path d="M9.16797 15.2784V13.6484" stroke="white" stroke-width="2.28189" stroke-linecap="round" stroke-linejoin="round"/>
<path d="M17.1147 3.05396H5.50152C4.8531 3.05396 4.23123 3.31154 3.77273 3.77005C3.31423 4.22855 3.05664 4.85042 3.05664 5.49884V18.9457L6.11274 17.112L9.16884 18.9457L12.2249 17.112L15.281 18.9457V4.88762C15.281 4.4013 15.4742 3.93489 15.8181 3.59102C16.1619 3.24714 16.6284 3.05396 17.1147 3.05396ZM17.1147 3.05396C17.601 3.05396 18.0675 3.24714 18.4114 3.59102C18.7552 3.93489 18.9484 4.4013 18.9484 4.88762V9.16616H15.281" stroke="white" stroke-width="2.28189" stroke-linecap="round" stroke-linejoin="round"/>
</g>
<defs>
<clipPath id="clip0_2459_2321">
<rect width="17.1142" height="17.1142" fill="white" transform="translate(2.44434 2.44287)"/>
</clipPath>
</defs>
</svg>
