<svg width="21" height="20" viewBox="0 0 21 20" fill="none" xmlns="http://www.w3.org/2000/svg">
<path d="M18.28 16.5822C18.28 16.8996 18.1539 17.2041 17.9295 17.4285C17.7051 17.6529 17.4006 17.779 17.0832 17.779H3.91847C3.60106 17.779 3.29666 17.6529 3.07221 17.4285C2.84777 17.2041 2.72168 16.8996 2.72168 16.5822V7.49857C2.723 7.1846 2.84765 6.88373 3.06875 6.66081L7.16179 2.56777C7.3847 2.34667 7.68558 2.22203 7.99954 2.2207H17.0832C17.4006 2.2207 17.7051 2.34679 17.9295 2.57124C18.1539 2.79568 18.28 3.10008 18.28 3.4175V16.5822Z" stroke="white" stroke-width="1.19679" stroke-linecap="round" stroke-linejoin="round"/>
<path d="M14.6891 17.7791V12.3936C14.6891 12.2349 14.626 12.0826 14.5139 11.9704C14.4016 11.8582 14.2494 11.7952 14.0907 11.7952H6.90992C6.75121 11.7952 6.59901 11.8582 6.48679 11.9704C6.37457 12.0826 6.31152 12.2349 6.31152 12.3936V17.7791" stroke="white" stroke-width="1.19679" stroke-linecap="round" stroke-linejoin="round"/>
<path d="M14.6891 2.2207V6.40949C14.6891 6.56819 14.626 6.7204 14.5138 6.83261C14.4016 6.94484 14.2494 7.00788 14.0907 7.00788H9.30348C9.14477 7.00788 8.99256 6.94484 8.88035 6.83261C8.76813 6.7204 8.70508 6.56819 8.70508 6.40949V2.2207" stroke="white" stroke-width="1.19679" stroke-linecap="round" stroke-linejoin="round"/>
</svg>
