<svg width="48" height="48" viewBox="0 0 48 48" fill="none" xmlns="http://www.w3.org/2000/svg">
<path d="M17.3677 26.6839C17.7723 25.8763 18 24.9647 18 24C18 23.0353 17.7723 22.1237 17.3677 21.3161M17.3677 26.6839C16.3827 28.6502 14.349 30 12 30C8.68629 30 6 27.3137 6 24C6 20.6863 8.68629 18 12 18C14.349 18 16.3827 19.3498 17.3677 21.3161M17.3677 26.6839L30.6323 33.3161M17.3677 21.3161L30.6323 14.6839M30.6323 14.6839C31.6173 16.6502 33.651 18 36 18C39.3137 18 42 15.3137 42 12C42 8.68629 39.3137 6 36 6C32.6863 6 30 8.68629 30 12C30 12.9647 30.2277 13.8763 30.6323 14.6839ZM30.6323 33.3161C30.2277 34.1237 30 35.0353 30 36C30 39.3137 32.6863 42 36 42C39.3137 42 42 39.3137 42 36C42 32.6863 39.3137 30 36 30C33.651 30 31.6173 31.3498 30.6323 33.3161Z" stroke="white" stroke-width="4" stroke-linecap="round" stroke-linejoin="round"/>
</svg>
