<svg width="20" height="20" viewBox="0 0 20 20" fill="none" xmlns="http://www.w3.org/2000/svg">
<g clip-path="url(#clip0_291_2538)">
<path d="M9.20746 2.43886C9.45694 1.67115 10.5431 1.67115 10.7925 2.43887L12.0582 6.33379C12.1698 6.67712 12.4897 6.90956 12.8507 6.90958L16.9462 6.90973C17.7534 6.90976 18.089 7.94272 17.436 8.41723L14.1228 10.8246C13.8308 11.0368 13.7086 11.4129 13.8201 11.7562L15.0855 15.6512C15.3349 16.419 14.4562 17.0574 13.8031 16.5829L10.4898 14.1758C10.1977 13.9636 9.80227 13.9637 9.5102 14.1758L6.19685 16.5829C5.54377 17.0574 4.66508 16.419 4.9145 15.6512L6.17991 11.7562C6.29145 11.4129 6.16924 11.0368 5.8772 10.8246L2.56403 8.41723C1.91097 7.94272 2.2466 6.90976 3.05384 6.90973L7.14926 6.90958C7.51026 6.90956 7.83019 6.67711 7.94176 6.33379L9.20746 2.43886Z" stroke="white"/>
</g>
<defs>
<clipPath id="clip0_291_2538">
<rect width="20" height="20" fill="white"/>
</clipPath>
</defs>
</svg>
