<svg width="48" height="49" viewBox="0 0 48 49" fill="none" xmlns="http://www.w3.org/2000/svg">
<path d="M8.2074 28.3193V41.2425C8.2074 41.6233 8.35868 41.9886 8.62797 42.2579C8.89723 42.527 9.26247 42.6784 9.64329 42.6784H38.3612C38.742 42.6784 39.1073 42.527 39.3767 42.2579C39.6458 41.9886 39.7971 41.6233 39.7971 41.2425V28.3193" stroke="white" stroke-width="3.11111" stroke-linecap="round" stroke-linejoin="round"/>
<path d="M26.8715 28.3193V42.6784" stroke="white" stroke-width="3.11111" stroke-linecap="round" stroke-linejoin="round"/>
<path d="M8.2074 32.6279H26.8741" stroke="white" stroke-width="3.11111" stroke-linecap="round" stroke-linejoin="round"/>
<path d="M5.33337 15.396L9.64107 5.34473H38.359L42.6667 15.396H5.33337Z" stroke="white" stroke-width="3.11111" stroke-linecap="round" stroke-linejoin="round"/>
<path d="M17.6249 15.3955V18.2673C17.6249 19.7906 17.0198 21.2515 15.9426 22.3286C14.8655 23.4058 13.4046 24.0109 11.8813 24.0109H11.0772C9.55392 24.0109 8.09301 23.4058 7.01589 22.3286C5.93875 21.2515 5.33362 19.7906 5.33362 18.2673V15.3955" stroke="white" stroke-width="3.11111" stroke-linecap="round" stroke-linejoin="round"/>
<path d="M30.4637 15.3955V18.2673C30.4637 19.7906 29.8586 21.2515 28.7815 22.3286C27.7043 23.4058 26.2434 24.0109 24.7201 24.0109H23.2842C21.761 24.0109 20.3 23.4058 19.2229 22.3286C18.1458 21.2515 17.5406 19.7906 17.5406 18.2673V15.3955" stroke="white" stroke-width="3.11111" stroke-linecap="round" stroke-linejoin="round"/>
<path d="M42.6652 15.3955V18.2673C42.6652 19.7906 42.0601 21.2515 40.9829 22.3286C39.9057 23.4058 38.4448 24.0109 36.9216 24.0109H36.2037C34.6805 24.0109 33.2196 23.4058 32.1424 22.3286C31.0652 21.2515 30.4601 19.7906 30.4601 18.2673V15.3955" stroke="white" stroke-width="3.11111" stroke-linecap="round" stroke-linejoin="round"/>
</svg>
