<svg width="61" height="61" viewBox="0 0 61 61" fill="none" xmlns="http://www.w3.org/2000/svg">
<g clip-path="url(#clip0_2459_2121)">
<rect width="40" height="40" transform="translate(10.5 10.5)" fill="#FF5733"/>
<path d="M38.9543 10.5H32.2131V37.7463C32.2131 40.9928 29.6204 43.6594 26.3938 43.6594C23.1673 43.6594 20.5745 40.9928 20.5745 37.7463C20.5745 34.558 23.1097 31.9492 26.221 31.8333V24.9928C19.3646 25.1087 13.8334 30.7319 13.8334 37.7463C13.8334 44.8189 19.4798 50.5 26.4515 50.5C33.423 50.5 39.0694 44.7609 39.0694 37.7463V23.7753C41.6046 25.6304 44.7159 26.7319 48 26.7899V19.9493C42.9298 19.7754 38.9543 15.6014 38.9543 10.5Z" fill="#272525"/>
</g>
<defs>
<clipPath id="clip0_2459_2121">
<rect width="40" height="40" fill="white" transform="translate(10.5 10.5)"/>
</clipPath>
</defs>
</svg>
