<svg width="48" height="49" viewBox="0 0 48 49" fill="none" xmlns="http://www.w3.org/2000/svg">
<path d="M8.20312 28.8081V41.7335C8.20312 42.1144 8.35444 42.4797 8.62377 42.7491C8.89308 43.0183 9.25838 43.1696 9.63928 43.1696H38.3624C38.7432 43.1696 39.1086 43.0183 39.378 42.7491C39.6471 42.4797 39.7985 42.1144 39.7985 41.7335V28.8081" stroke="white" stroke-width="3.20057" stroke-linecap="round" stroke-linejoin="round"/>
<path d="M41.2339 21.6273H6.76623C6.38534 21.6273 6.02005 21.4761 5.75072 21.2067C5.48139 20.9374 5.33008 20.5721 5.33008 20.1912V14.4466L8.83429 7.40942C9.07517 6.93138 9.44486 6.53015 9.90161 6.25101C10.3584 5.97187 10.8841 5.82593 11.4194 5.82966H36.5808C37.1162 5.82593 37.6418 5.97187 38.0985 6.25101C38.5552 6.53015 38.9249 6.93138 39.1659 7.40942L42.6701 14.4466V20.1912C42.6701 20.5721 42.5187 20.9374 42.2496 21.2067C41.9801 21.4761 41.6148 21.6273 41.2339 21.6273Z" stroke="white" stroke-width="3.20057" stroke-linecap="round" stroke-linejoin="round"/>
<path d="M26.873 28.8081V43.1696" stroke="white" stroke-width="3.20057" stroke-linecap="round" stroke-linejoin="round"/>
<path d="M8.20312 33.1167H26.8731" stroke="white" stroke-width="3.20057" stroke-linecap="round" stroke-linejoin="round"/>
<path d="M5.33008 14.4468H42.6701" stroke="white" stroke-width="3.20057" stroke-linecap="round" stroke-linejoin="round"/>
</svg>
