<svg width="97" height="96" viewBox="0 0 97 96" fill="none" xmlns="http://www.w3.org/2000/svg">
<path d="M53.6153 13.7869C53.133 12.8455 52.4002 12.0554 51.4977 11.5038C50.5952 10.9521 49.5579 10.6602 48.5002 10.6602C47.4424 10.6602 46.4051 10.9521 45.5026 11.5038C44.6001 12.0554 43.8674 12.8455 43.3851 13.7869L11.775 77.0066C11.3341 77.8814 11.1242 78.8544 11.1652 79.8337C11.2062 80.8125 11.4967 81.7642 12.0092 82.5993C12.5217 83.4344 13.2392 84.1246 14.0935 84.6039C14.9477 85.0838 15.9103 85.3373 16.8901 85.3402H80.1102C81.0901 85.3373 82.0527 85.0838 82.9068 84.6039C83.7614 84.1246 84.4787 83.4344 84.9913 82.5993C85.5034 81.7642 85.7942 80.8125 85.835 79.8337C85.8764 78.8544 85.6661 77.8814 85.2252 77.0066L53.6153 13.7869Z" stroke="white" stroke-width="5.74461" stroke-linecap="round" stroke-linejoin="round"/>
<path d="M48.5 36.4893V55.1678" stroke="white" stroke-width="5.74461" stroke-linecap="round" stroke-linejoin="round"/>
<path d="M48.4993 70.9732C47.7058 70.9732 47.0625 70.3301 47.0625 69.5364C47.0625 68.7427 47.7058 68.0996 48.4993 68.0996" stroke="white" stroke-width="5.74461" stroke-linecap="round" stroke-linejoin="round"/>
<path d="M48.5 70.9732C49.2935 70.9732 49.9368 70.3301 49.9368 69.5364C49.9368 68.7427 49.2935 68.0996 48.5 68.0996" stroke="white" stroke-width="5.74461" stroke-linecap="round" stroke-linejoin="round"/>
</svg>
